<svg xmlns="http://www.w3.org/2000/svg" viewBox="0 0 137.44 137.44"><defs><style>.cls-1{fill:#858585}.cls-5{fill:#2b393a}.cls-3{fill:#fff}.cls-5,.cls-7{stroke:#000;stroke-miterlimit:10;stroke-width:.85px}.cls-6{fill:#dbdbdb}.cls-7{fill:#ff6022}.cls-8{fill:#1d1d1b}</style></defs><g id="Layer_2" data-name="Layer 2"><path class="cls-1" d="M41 115.12c-9.08-1.63-14.29-5.32-14.29-5.32l-6.12-15.64s3.61 3.46 15.3 10.09 43.22 12.38 43.22 12.38-29.05.13-38.11-1.51zM62 92.58a25.14 25.14 0 017.5-47.15c3-.46-2.09-.27-3.17-.31h-.84a25.17 25.17 0 104 50l-.28-.12A24.9 24.9 0 0162 92.58z"/><path d="M70.37 23.35c-1.17-.08-2.34-.14-3.53-.14h-.2c1.19 0 2.36.07 3.53.16z"/><path d="M112.45 70.22a47 47 0 00-42.91-46.8l.63-.05c-1.17-.09-2.34-.15-3.53-.16h-.2a47 47 0 000 94h.2c1.19 0 2.36-.07 3.53-.16h-.63a47 47 0 0042.91-46.83zM69.29 95.08a24.5 24.5 0 01-2.85.17 25 25 0 010-50.06 25 25 0 012.85 49.89z" fill="#2b393a"/></g><g id="Layer_1_copy" data-name="Layer 1 copy"><path class="cls-3" d="M28.34 53.14h75.4v16.97h-75.4z"/><path stroke-width=".85" stroke="#000" stroke-miterlimit="10" fill="#2b393a" d="M29.74 54.46h14.5v14.5h-14.5z"/><path class="cls-5" d="M44.14 54.46h14.5v14.5h-14.5z"/><path class="cls-5" d="M58.63 54.46h14.5v14.5h-14.5zM73.23 54.46h14.5v14.5h-14.5z"/><path class="cls-5" d="M87.63 54.46h14.5v14.5h-14.5z"/><path class="cls-6" d="M34.72 66.94a4.81 4.81 0 01-1.6-2.14 8.68 8.68 0 01-.55-3.18 7.3 7.3 0 01.77-3.62 4.52 4.52 0 011.83-1.89 4.47 4.47 0 012.08-.55 3.9 3.9 0 012.11.6 4.56 4.56 0 011.52 1.65l-1.39 1.34-.1.11-.15-.15a1.14 1.14 0 000-.15.61.61 0 00-.06-.25 2.7 2.7 0 00-.15-.29 3 3 0 00-.73-.8 1.74 1.74 0 00-1.07-.31 2 2 0 00-1.24.42 3.1 3.1 0 00-.92 1.36 6.66 6.66 0 00-.35 2.37 7.64 7.64 0 00.28 2.4 3.61 3.61 0 00.9 1.55 1.9 1.9 0 001.32.54 2.6 2.6 0 001.64-.48v-2.16h-2v-1.75h3.9v4.83a5.7 5.7 0 01-1.69 1 5.53 5.53 0 01-1.9.31 4.21 4.21 0 01-2.45-.76zM53.15 64.4h-2.93l-.84 3h-2.12l3.83-11.49h1.21l3.83 11.49H54zm-.39-1.4l-1.06-3.85L50.62 63zM63 55.88h7.14v1.76H65v2.69h4.09v1.73H65v5.31h-2zM77.28 55.88h7.14v1.76h-5.07v2.69h4.09v1.73h-4.09v5.31h-2.07zM96.5 64.4h-2.94l-.83 3H90.6l3.84-11.49h1.2l3.84 11.49h-2.16zm-.4-1.4l-1-3.82L94 63z"/></g><g id="Layer_6" data-name="Layer 6"><path d="M73.64 23.21c-1.1 0-2.19.06-3.27.14h-.2l-.63.05a47 47 0 010 93.61l-.42.06c-.13 0-1.29.13-2.48.14h.2c1.19 0 2.36 0 3.53-.12s2.22-.17 3.32-.17a46.87 46.87 0 100-93.73zM18.64 77.14H19h-.33z"/><path class="cls-3" d="M10.41 73.11h119.26v16.85H10.41z"/><path class="cls-7" d="M11.76 74.15h14.5v14.5h-14.5zM26.26 74.15h14.5v14.5h-14.5zM40.85 74.15h14.5v14.5h-14.5zM55.45 74.15h14.5v14.5h-14.5z"/><path class="cls-7" d="M69.85 74.15h14.5v14.5h-14.5zM84.35 74.15h14.5v14.5h-14.5zM98.94 74.15h14.5v14.5h-14.5z"/><path class="cls-7" d="M113.39 74.15h14.5v14.5h-14.5z"/><path class="cls-8" d="M17 86.67a4.52 4.52 0 01-1.5-2.1 9.42 9.42 0 01-.5-3.28 9.16 9.16 0 01.51-3.23A4.53 4.53 0 0117 76a4.19 4.19 0 014.67 0 4.45 4.45 0 011.49 2.07 8.93 8.93 0 01.52 3.23 9.18 9.18 0 01-.52 3.28 4.44 4.44 0 01-1.49 2.1 3.83 3.83 0 01-2.34.72 3.82 3.82 0 01-2.33-.73zm3.52-1.49a3.91 3.91 0 00.76-1.6 9.45 9.45 0 00.27-2.4 8.23 8.23 0 00-.29-2.18 3.54 3.54 0 00-.76-1.49 1.59 1.59 0 00-2.37 0 3.55 3.55 0 00-.77 1.49 8.67 8.67 0 00-.26 2.22 10 10 0 00.26 2.4 3.92 3.92 0 00.77 1.6 1.55 1.55 0 001.18.56 1.57 1.57 0 001.19-.6zM29 75.58h2.17l2.42 8.14 2.28-8.14H38l-3.73 11.48h-1.59zM44.62 75.58h7.48v1.77h-5.47v2.83h4.53V82h-4.53v3.3h5.43v1.77h-7.44zM59.12 75.58h3.64a4.35 4.35 0 013 .9 3.28 3.28 0 011 2.53 3.18 3.18 0 01-.27 1.26 3.6 3.6 0 01-.78 1.11 2.88 2.88 0 01-1.15.69l2.7 5h-2.32l-2.37-4.75h-1.34v4.75h-2.11zm3.76 5a1.84 1.84 0 001.33-.41 1.46 1.46 0 00.45-1.17 1.59 1.59 0 00-.43-1.21 2 2 0 00-1.35-.4h-1.65v3.15zM73.69 75.58h7.14v1.75h-5.07V80h4.08v1.73h-4.08v5.31h-2.07zM88.37 75.58h2.25v.2a.6.6 0 00-.12.24 1.76 1.76 0 000 .44v8.86h5.2v1.74h-7.33zM104 86.67a4.52 4.52 0 01-1.5-2.1 9.42 9.42 0 01-.51-3.28 9.16 9.16 0 01.51-3.23A4.53 4.53 0 01104 76a4.19 4.19 0 014.67 0 4.45 4.45 0 011.49 2.07 8.93 8.93 0 01.52 3.23 9.18 9.18 0 01-.52 3.28 4.44 4.44 0 01-1.49 2.1 4.15 4.15 0 01-4.67 0zm3.52-1.49a3.91 3.91 0 00.76-1.6 9.45 9.45 0 00.27-2.4 8.23 8.23 0 00-.25-2.18 3.54 3.54 0 00-.76-1.49 1.59 1.59 0 00-2.37 0 3.55 3.55 0 00-.77 1.49 8.67 8.67 0 00-.26 2.22 10 10 0 00.26 2.4 3.92 3.92 0 00.77 1.6 1.55 1.55 0 001.18.56 1.57 1.57 0 001.19-.6zM116.38 75.58h2l.65 7.58 1.35-6.64h1.33l1.35 6.58.47-7.52h1.92l-1.35 11.48h-1.62l-1.51-7-1.53 7h-1.66z"/></g></svg>