<svg xmlns="http://www.w3.org/2000/svg" viewBox="0 0 136.1 50.67"><defs><style>.cls-1{fill:#858585}.cls-4,.cls-9{stroke:#000;stroke-miterlimit:10}.cls-4{fill:#2b393a}.cls-4,.cls-9{stroke-width:.56px}.cls-8{fill:#dbdbdb}.cls-9{fill:#ff6022}.cls-10{fill:#1d1d1b}</style></defs><path class="cls-1" d="M35.62 34.72l2.47 9.83 63.59-14.68-2.47-9.82-63.59 14.67z" id="Layer_4" data-name="Layer 4"/><g id="Layer_2" data-name="Layer 2"><path d="M26.35 29.83l18.82-.15v-9.44s-3.67.43-7.3 5c-3.82 4.76-11.52 4.59-11.52 4.59" stroke-width=".52" stroke-miterlimit="10" stroke="#000"/><path stroke-width=".56" fill="#2b393a" stroke-miterlimit="10" stroke="#000" d="M45.28 20.24h9.44v9.44h-9.44z"/><path class="cls-4" d="M54.65 20.24h9.44v9.44h-9.44zM64.09 20.24h9.44v9.44h-9.44zM73.59 20.24h9.44v9.44h-9.44z"/><path class="cls-4" d="M82.97 20.24h9.44v9.44h-9.44z"/><path d="M28.57 30h.33-.33z"/><path class="cls-1" d="M33.67 30a3.5 3.5 0 001.13-.66c.36-.39 3-4.48 3-4.48a9.81 9.81 0 01-3.24 2.68c-2.15 1.14-8.29 2.49-8.29 2.49z"/><circle cx="25.61" cy="17.63" r="12.48"/><circle cx="25.61" cy="17.63" r="6.09" fill="#fff"/><circle cx="25.71" cy="17.63" r="12.48" fill="#2b393a"/><path d="M13.5 17.63A12.48 12.48 0 0124.89 5.2H23.8a12.48 12.48 0 000 25 9.82 9.82 0 001.09-.06A12.47 12.47 0 0113.5 17.63z"/><circle cx="25.71" cy="17.63" r="7.06" stroke="#2b393a" stroke-width=".83" fill="#fff" stroke-miterlimit="10"/><path class="cls-1" d="M30.5 17.57a6.67 6.67 0 01-5.61 6.58 7.45 7.45 0 001.06.09A6.67 6.67 0 0026 10.9a6.23 6.23 0 00-1.06.09 6.67 6.67 0 015.56 6.58z"/></g><g id="Layer_1_copy" data-name="Layer 1 copy"><path class="cls-8" d="M48.53 28.36A3.1 3.1 0 0147.48 27a5.76 5.76 0 01-.35-2.07 4.72 4.72 0 01.49-2.33 3 3 0 011.2-1.24 2.91 2.91 0 011.35-.36 2.44 2.44 0 011.37.4 2.76 2.76 0 011 1.07l-.9.87-.07.07-.09-.09a.46.46 0 000-.1.59.59 0 000-.17 1.18 1.18 0 00-.1-.19 2 2 0 00-.47-.52 1.16 1.16 0 00-.7-.2 1.32 1.32 0 00-.8.28 1.86 1.86 0 00-.6.88 4.29 4.29 0 00-.23 1.55 5.08 5.08 0 00.21 1.54 2.34 2.34 0 00.58 1 1.26 1.26 0 00.86.35 1.76 1.76 0 001.07-.31V26H50v-1.14h2.54V28a3.39 3.39 0 01-1.1.65 3.55 3.55 0 01-1.24.21 2.71 2.71 0 01-1.67-.5zM60.52 26.71h-1.91l-.54 1.93h-1.38l2.49-7.48H60l2.49 7.48h-1.4zm-.25-.93l-.69-2.49-.7 2.49zM66.91 21.16h4.65v1.15h-3.3v1.75h2.66v1.12h-2.66v3.46h-1.35zM76.23 21.16h4.65v1.15h-3.3v1.75h2.66v1.12h-2.66v3.46h-1.35zM88.74 26.71h-1.91l-.54 1.93H84.9l2.5-7.48h.78l2.5 7.48h-1.41zm-.26-.93l-.68-2.49-.71 2.49z"/><path d="M92.33 19.97v10l9.35-.1-2.47-9.82-6.88-.08zM44.97 44.62v-10l-9.35.1 2.47 9.83 6.88.07z"/><path class="cls-9" d="M45.17 34.9h9.44v9.44h-9.44z"/><path class="cls-9" d="M54.6 34.9h9.44v9.44H54.6zM64.1 34.9h9.44v9.44H64.1zM73.6 34.9h9.44v9.44H73.6z"/><path class="cls-9" d="M82.98 34.9h9.44v9.44h-9.44zM92.42 34.9h9.44v9.44h-9.44zM101.92 34.9h9.44v9.44h-9.44z"/><path class="cls-9" d="M111.32 34.9h9.44v9.44h-9.44z"/><path class="cls-10" d="M48.56 43.05a2.94 2.94 0 01-1-1.37 5.91 5.91 0 01-.34-2.13 5.8 5.8 0 01.34-2.11 2.9 2.9 0 011-1.34 2.69 2.69 0 013 0 2.83 2.83 0 011 1.34 5.8 5.8 0 01.34 2.11 5.91 5.91 0 01-.34 2.13 2.88 2.88 0 01-1 1.37 2.69 2.69 0 01-3 0zm2.29-1a2.48 2.48 0 00.5-1 6.11 6.11 0 00.17-1.56 5.25 5.25 0 00-.17-1.49 2.27 2.27 0 00-.5-1 1 1 0 00-.77-.34 1 1 0 00-.77.34 2.39 2.39 0 00-.5 1 5.66 5.66 0 00-.17 1.45 6.59 6.59 0 00.17 1.55 2.48 2.48 0 00.5 1 1 1 0 00.77.37 1 1 0 00.77-.3zM56.36 35.83h1.42l1.57 5.3 1.49-5.3h1.38l-2.4 7.47h-1zM66.56 35.83h4.86V37h-3.56v1.85h3V40h-3v2.15h3.54v1.15h-4.84zM76 35.83h2.37a2.84 2.84 0 012 .58 2.16 2.16 0 01.63 1.65 2 2 0 01-.17.82 2.25 2.25 0 01-.51.72 1.83 1.83 0 01-.74.45l1.72 3.25h-1.51l-1.55-3.09h-.87v3.09H76zm2.45 3.24a1.23 1.23 0 00.87-.27 1 1 0 00.29-.74 1 1 0 00-.28-.79 1.28 1.28 0 00-.88-.25h-1.08v2zM85.48 35.83h4.64V37h-3.29v1.75h2.66v1.13h-2.66v3.42h-1.35zM95 35.83h1.5V36a.35.35 0 00-.08.16 2 2 0 000 .28v5.77h3.4v1.09H95zM105.22 43.05a2.94 2.94 0 01-1-1.37 5.91 5.91 0 01-.34-2.13 5.8 5.8 0 01.34-2.11 2.9 2.9 0 011-1.34 2.69 2.69 0 013 0 2.83 2.83 0 011 1.34 5.8 5.8 0 01.34 2.11 5.91 5.91 0 01-.34 2.13 2.88 2.88 0 01-1 1.37 2.69 2.69 0 01-3 0zm2.29-1a2.48 2.48 0 00.5-1 6.11 6.11 0 00.17-1.56A5.25 5.25 0 00108 38a2.27 2.27 0 00-.5-1 1 1 0 00-.77-.34 1 1 0 00-.77.34 2.39 2.39 0 00-.5 1 5.66 5.66 0 00-.17 1.45 6.59 6.59 0 00.17 1.56 2.48 2.48 0 00.5 1 1 1 0 00.77.37 1 1 0 00.78-.31zM113.27 35.83h1.31l.43 4.93.88-4.32h.86l.88 4.28.31-4.89h1.25l-.89 7.47h-1.06l-1-4.54-1 4.54h-1.08z"/><path d="M128.8 42v-.56a1.73 1.73 0 01-.05-.51.61.61 0 010-.13l-.11-2.88-.22-.35a4.28 4.28 0 01-.62-2.42 3.93 3.93 0 01.06-.48h-7.05v10h7"/><path class="cls-1" d="M127.83 44.64L127 44a1.39 1.39 0 00.21-.27l1.58-1.73"/><path d="M128.78 41.39v-.64a.61.61 0 000 .13 1.73 1.73 0 000 .51z"/></g></svg>