<svg xmlns="http://www.w3.org/2000/svg" viewBox="0 0 132.64 50.63"><defs><style>.cls-3{stroke:#fff}.cls-3,.cls-6{stroke-miterlimit:10}.cls-3,.cls-7{fill:#fff}.cls-3,.cls-6{stroke-width:.56px}.cls-6{fill:none;stroke:#000}</style></defs><path d="M-18.15-22.97h186.79v94H-18.15z" id="Layer_5" data-name="Layer 5"/><g id="Layer_1_copy" data-name="Layer 1 copy"><path stroke-miterlimit="10" stroke-linecap="square" stroke-width=".49" stroke="#fff" d="M18.71 22.13h19.65v9.44H18.71z"/><path stroke-width=".56" fill="#fff" stroke-miterlimit="10" stroke="#fff" d="M38.67 22.13h9.44v9.44h-9.44z"/><path class="cls-3" d="M48.04 22.13h9.44v9.44h-9.44zM57.48 22.13h9.44v9.44h-9.44zM66.98 22.13h9.44v9.44h-9.44z"/><path class="cls-3" d="M76.35 22.13h9.44v9.44h-9.44z"/><path d="M22 31.85h.33H22z"/><circle cx="20.11" cy="19.55" r="12.02" stroke-width=".75" stroke-miterlimit="10" stroke="#fff"/><circle cx="20.11" cy="19.55" r="6.35" stroke-width=".81" fill="none" stroke-miterlimit="10" stroke="#fff"/><path class="cls-6" d="M48.26 22.53v8.69M57.89 22.53v8.69M66.99 22.53v8.69M76.35 22.53v8.69"/><path d="M41.91 30.25a3.16 3.16 0 01-1-1.39 5.54 5.54 0 01-.36-2.07 4.78 4.78 0 01.5-2.34 3 3 0 011.19-1.23 3 3 0 011.36-.36 2.44 2.44 0 011.37.4 2.8 2.8 0 011 1.06l-.9.88-.07.07-.09-.1a.55.55 0 010-.09.53.53 0 000-.17 1.18 1.18 0 00-.1-.19 2 2 0 00-.48-.52 1.15 1.15 0 00-.69-.2 1.31 1.31 0 00-.81.28 2 2 0 00-.6.88A4.46 4.46 0 0042 26.7a5.14 5.14 0 00.21 1.55 2.35 2.35 0 00.59 1 1.23 1.23 0 00.86.34 1.7 1.7 0 001.07-.31v-1.4h-1.37v-1.13h2.54v3.14a3.7 3.7 0 01-1.1.65 3.55 3.55 0 01-1.24.21 2.76 2.76 0 01-1.65-.5zM53.91 28.6H52l-.54 1.93h-1.39l2.5-7.48h.78l2.5 7.48h-1.41zm-.26-.94L53 25.18l-.71 2.48zM60.3 23.05H65v1.15h-3.3V26h2.66v1.12h-2.71v3.46H60.3zM69.62 23.05h4.65v1.15H71V26h2.66v1.12H71v3.46h-1.38zM82.13 28.6h-1.91l-.55 1.93h-1.38l2.5-7.48h.78l2.5 7.48h-1.41zm-.26-.94l-.69-2.48-.7 2.48zM86.04 22.13l6.36.06-.87 9.37-5.49.06v-9.49z"/><path class="cls-7" d="M86.29 22.38l5.84.06-.83 8.87-5 .06v-9m-.5-.51v10l6-.06.87-9.8-6.88-.08z"/><path class="cls-3" d="M38.64 33.43h9.44v9.44h-9.44zM48.08 33.43h9.44v9.44h-9.44zM57.58 33.43h9.44v9.44h-9.44zM67.08 33.43h9.44v9.44h-9.44z"/><path class="cls-3" d="M76.46 33.43h9.44v9.44h-9.44z"/><path class="cls-3" d="M85.89 33.43h9.44v9.44h-9.44zM95.39 33.43h9.44v9.44h-9.44z"/><path class="cls-3" d="M104.8 33.43h9.44v9.44h-9.44z"/><path d="M41.76 41.58a3 3 0 01-1-1.37 6.11 6.11 0 01-.33-2.13 6 6 0 01.35-2.08 2.92 2.92 0 011-1.34 2.69 2.69 0 013 0 3 3 0 011 1.34 6 6 0 01.34 2.11 6.1 6.1 0 01-.34 2.13 3 3 0 01-1 1.37 2.69 2.69 0 01-3 0zm2.29-1a2.52 2.52 0 00.49-1 6.08 6.08 0 00.18-1.58 5.22 5.22 0 00-.18-1.45 2.27 2.27 0 00-.49-1 1 1 0 00-.77-.34 1 1 0 00-.77.34 2.17 2.17 0 00-.5 1 5.22 5.22 0 00-.18 1.45 6.08 6.08 0 00.17 1.57 2.41 2.41 0 00.5 1 1 1 0 00.77.36 1 1 0 00.78-.32zM50.12 34.36h1.42l1.57 5.3 1.49-5.3H56l-2.4 7.47h-1zM60 34.36h4.9v1.15h-3.56v1.85h3v1.18h-3v2.14h3.54v1.15H60zM69.47 34.36h2.37a2.82 2.82 0 012 .59 2.13 2.13 0 01.63 1.64 2 2 0 01-.18.82 2.08 2.08 0 01-.5.72 1.93 1.93 0 01-.75.45l1.76 3.25h-1.54l-1.54-3.09h-.88v3.09h-1.37zm2.45 3.24a1.23 1.23 0 00.87-.27 1 1 0 00.29-.74 1.07 1.07 0 00-.28-.79 1.28 1.28 0 00-.88-.25h-1.08v2.05zM79 34.36h4.6v1.14h-3.3v1.75H83v1.13h-2.7v3.45H79zM88.51 34.36H90v.13a.35.35 0 00-.08.16 1.1 1.1 0 000 .28v5.77h3.4v1.13h-4.81zM98.7 41.58a2.94 2.94 0 01-1-1.37 5.87 5.87 0 01-.34-2.13 5.8 5.8 0 01.37-2.08 2.9 2.9 0 011-1.34 2.69 2.69 0 013 0 2.9 2.9 0 011 1.34 5.8 5.8 0 01.34 2.11 5.87 5.87 0 01-.34 2.13 2.94 2.94 0 01-1 1.37 2.69 2.69 0 01-3 0zm2.29-1a2.52 2.52 0 00.5-1 6.59 6.59 0 00.17-1.56 5.66 5.66 0 00-.17-1.45 2.27 2.27 0 00-.5-1 1 1 0 00-.77-.34 1 1 0 00-.77.34 2.27 2.27 0 00-.5 1 5.66 5.66 0 00-.17 1.43 6.59 6.59 0 00.22 1.57 2.52 2.52 0 00.5 1 1 1 0 001.54 0zM106.75 34.36h1.31l.43 4.93.88-4.32h.86l.88 4.29.31-4.9h1.24l-.89 7.47h-1l-1-4.54-1 4.54h-1.08z"/><path class="cls-6" d="M48.09 33.81v8.68M57.81 33.81v8.68M67.01 33.81v8.68M76.45 33.81v8.68M85.88 33.81v8.68M95.34 33.81v8.68M104.83 33.81v8.68"/><path d="M114.45 33.35l6.35.07-.87 9.36-5.48.06v-9.49z"/><path class="cls-7" d="M114.7 33.6l5.83.06-.83 8.88-5 .05v-9m-.5-.5v10l6-.07.92-9.86-6.88-.07z"/><path d="M32.04 42.77l.87-9.36 5.49-.06v9.49l-6.36-.07z"/><path class="cls-7" d="M38.14 33.6v9l-5.83-.06.83-8.88h5m.5-.5l-6 .06-.88 9.78 6.88.08v-10z"/><path d="M114.71 33.4l9.14.07v9.37l-9.14.06v-9.5z"/><path class="cls-7" d="M115 33.65l8.65.07v8.88H115v-9m-.5-.5v10l9.64-.06v-9.81l-9.64-.08z"/></g></svg>