<svg xmlns="http://www.w3.org/2000/svg" viewBox="0 0 137.44 137.44"><defs><style>.cls-3{fill:#fff}.cls-2,.cls-3{stroke:#fff}.cls-2,.cls-3,.cls-4{stroke-miterlimit:10}.cls-3,.cls-4{stroke-width:.56px}.cls-4{fill:none;stroke:#000}</style></defs><path d="M0 .13h137.44v137.44H0z" id="Layer_5" data-name="Layer 5"/><g id="Layer_1_copy" data-name="Layer 1 copy"><path d="M104.09 18.63h.33-.33z"/><path d="M23.86 99.3a122.78 122.78 0 0011.15 7c6.71 3.8 19.71 7.31 28.68 9.43-7.94-.16-18.6-.54-23.38-1.4A35.59 35.59 0 0128 109.82L23.86 99.3m-2.26-3l5.53 14.23a35 35 0 0013 4.84c8.26 1.49 33.32 1.54 33.32 1.54s-27.32-5.41-37.94-11.43-13.91-9.23-13.91-9.23z" fill="#fff"/><circle class="cls-2" cx="69.76" cy="70.23" r="46.43"/><circle class="cls-2" cx="69.76" cy="70.23" r="24.54"/><path class="cls-3" d="M32.7 53.57h14.89v14.89H32.7z"/><path class="cls-3" d="M47.49 53.57h14.89v14.89H47.49zM62.38 53.57h14.89v14.89H62.38zM77.37 53.57h14.89v14.89H77.37z"/><path class="cls-3" d="M92.16 53.57h14.89v14.89H92.16z"/><path class="cls-4" d="M47.84 54.2v13.71M63.02 54.2v13.71M77.38 54.2v13.71M92.16 54.2v13.71"/><path d="M37.82 66.38a4.87 4.87 0 01-1.65-2.19 8.89 8.89 0 01-.56-3.27 7.36 7.36 0 01.79-3.68 4.67 4.67 0 011.88-2 4.59 4.59 0 012.14-.56 3.89 3.89 0 012.16.62 4.62 4.62 0 011.56 1.7l-1.42 1.37-.11.11-.15-.14a1.36 1.36 0 000-.16.88.88 0 00-.06-.26 2.25 2.25 0 00-.16-.3 3.31 3.31 0 00-.75-.82 1.79 1.79 0 00-1.1-.31 2.07 2.07 0 00-1.27.43 3.1 3.1 0 00-.94 1.39 6.77 6.77 0 00-.37 2.44 8.14 8.14 0 00.33 2.44 3.81 3.81 0 00.93 1.59 2 2 0 001.36.55 2.75 2.75 0 001.68-.49v-2.18h-2v-1.8h4v5a5.54 5.54 0 01-3.69 1.35 4.27 4.27 0 01-2.6-.83zM56.75 63.78h-3l-.86 3h-2.2L54.63 55h1.24l3.94 11.8h-2.22zm-.41-1.47l-1.08-3.92-1.11 3.92zM66.83 55h7.33v1.8H69v2.8h4.19v1.77H69v5.46h-2.17zM81.53 55h7.33v1.8h-5.2v2.8h4.19v1.77h-4.19v5.46h-2.13zM101.27 63.78h-3l-.86 3h-2.2L99.15 55h1.24l3.94 11.8h-2.22zm-.41-1.47l-1.08-3.92-1.11 3.92z"/><path class="cls-3" d="M10.02 71.4h14.89v14.89H10.02zM24.91 71.4H39.8v14.89H24.91zM39.9 71.4h14.89v14.89H39.9zM54.89 71.4h14.89v14.89H54.89z"/><path class="cls-3" d="M69.68 71.4h14.89v14.89H69.68z"/><path class="cls-3" d="M84.57 71.4h14.89v14.89H84.57zM99.56 71.4h14.89v14.89H99.56z"/><path class="cls-3" d="M114.39 71.4h14.89v14.89h-14.89z"/><path d="M14.93 84.26a4.59 4.59 0 01-1.53-2.15 9.45 9.45 0 01-.54-3.37 9.13 9.13 0 01.54-3.32 4.49 4.49 0 011.53-2.12 4 4 0 012.4-.74 4 4 0 012.4.74 4.49 4.49 0 011.53 2.12 9.14 9.14 0 01.53 3.32 9.46 9.46 0 01-.53 3.37 4.59 4.59 0 01-1.53 2.15 3.89 3.89 0 01-2.4.74 3.89 3.89 0 01-2.4-.74zm3.62-1.54a3.88 3.88 0 00.78-1.63 10.09 10.09 0 00.27-2.47 8.64 8.64 0 00-.27-2.28 3.55 3.55 0 00-.78-1.53 1.64 1.64 0 00-1.22-.54 1.62 1.62 0 00-1.21.54 3.46 3.46 0 00-.79 1.53 8.64 8.64 0 00-.27 2.28 10.09 10.09 0 00.27 2.47 3.88 3.88 0 00.78 1.63 1.57 1.57 0 002.44 0zM28.13 72.87h2.23l2.48 8.36 2.35-8.36h2.18l-3.79 11.79H32zM43.77 72.87h7.68v1.82h-5.62v2.91h4.66v1.86h-4.66v3.38h5.58v1.82h-7.64zM58.66 72.87h3.73a4.49 4.49 0 013.12.92 3.37 3.37 0 011 2.6 3.33 3.33 0 01-.28 1.29 3.62 3.62 0 01-.8 1.14 2.92 2.92 0 01-1.18.71L67 84.66h-2.36l-2.44-4.88h-1.38v4.88h-2.16zM62.52 78a1.91 1.91 0 001.37-.43 1.51 1.51 0 00.45-1.16 1.61 1.61 0 00-.43-1.24 2 2 0 00-1.39-.41h-1.7V78zM73.62 72.87H81v1.8h-5.2v2.76h4.19v1.78h-4.24v5.45h-2.13zM88.7 72.87H91v.21a.47.47 0 00-.13.24 1.85 1.85 0 000 .45v9.11h5.36v1.78H88.7zM104.77 84.26a4.59 4.59 0 01-1.53-2.15 9.45 9.45 0 01-.54-3.37 9.13 9.13 0 01.54-3.32 4.49 4.49 0 011.53-2.12 4.26 4.26 0 014.8 0 4.49 4.49 0 011.53 2.12 9.14 9.14 0 01.53 3.32 9.46 9.46 0 01-.53 3.37 4.59 4.59 0 01-1.53 2.15 4.26 4.26 0 01-4.8 0zm3.62-1.54a3.88 3.88 0 00.78-1.63 10.09 10.09 0 00.27-2.47 8.64 8.64 0 00-.27-2.28 3.55 3.55 0 00-.78-1.53 1.64 1.64 0 00-1.22-.54 1.62 1.62 0 00-1.21.54 3.46 3.46 0 00-.79 1.53 8.64 8.64 0 00-.27 2.28 10.09 10.09 0 00.27 2.47 3.88 3.88 0 00.78 1.63 1.57 1.57 0 002.44 0zM117.47 72.87h2.07l.67 7.78 1.39-6.81h1.4l1.39 6.75.49-7.72h2l-1.4 11.79h-1.66l-1.56-7.17-1.57 7.17h-1.7z"/><path class="cls-4" d="M24.92 72v13.7M40.26 72v13.7M54.78 72v13.7M69.66 72v13.7M84.55 72v13.7M99.46 72v13.7M114.45 72v13.7"/></g></svg>