<svg xmlns="http://www.w3.org/2000/svg" viewBox="0 0 129.14 46.69"><defs><style>.cls-1{fill:#2b393a}.cls-2{fill:#ebebeb}.cls-3{fill:#dbdbdb}.cls-4{fill:#ff6022}.cls-5{fill:#1d1d1b}</style></defs><g id="Layer_2" data-name="Layer 2"><path d="M19.18 20.08h18.26v9.44H19.18z"/><path d="M37.71 29.78H18.92v-10h18.79zm-18.27-.52h17.75v-8.92H19.44z"/><path class="cls-1" d="M37.45 20.08h9.44v9.44h-9.44z"/><path class="cls-1" d="M47.17 29.8h-10v-10h10zm-9.45-.55h8.89v-8.89h-8.89z"/><path class="cls-1" d="M46.82 20.08h9.44v9.44h-9.44z"/><path class="cls-1" d="M56.54 29.8h-10v-10h10zm-9.44-.55H56v-8.89h-8.9z"/><path class="cls-1" d="M56.26 20.08h9.44v9.44h-9.44z"/><path class="cls-1" d="M66 29.8H56v-10h10zm-9.44-.55h8.88v-8.89h-8.9z"/><path class="cls-1" d="M65.76 20.08h9.44v9.44h-9.44z"/><path class="cls-1" d="M75.48 29.8h-10v-10h10zM66 29.25h8.88v-8.89H66z"/><path class="cls-1" d="M75.13 20.08h9.44v9.44h-9.44z"/><path class="cls-1" d="M84.85 29.8h-10v-10h10zm-9.44-.55h8.89v-8.89h-8.89z"/><path d="M20.74 29.8z"/><circle cx="19.75" cy="17.44" r="12.48"/><path class="cls-2" d="M19.75 30.17a12.73 12.73 0 1112.73-12.73 12.74 12.74 0 01-12.73 12.73zm0-25A12.23 12.23 0 1032 17.44 12.24 12.24 0 0019.75 5.21z"/><circle class="cls-2" cx="19.75" cy="17.44" r="6.35"/></g><g id="Layer_1_copy" data-name="Layer 1 copy"><path class="cls-3" d="M40.69 28.21a3.19 3.19 0 01-1-1.4 5.47 5.47 0 01-.36-2.07 4.74 4.74 0 01.5-2.33A3 3 0 0141 21.17a3.09 3.09 0 011.36-.35 2.51 2.51 0 011.37.39 2.83 2.83 0 011 1.07l-.9.88-.07.07-.09-.1a.58.58 0 010-.1.53.53 0 000-.16 1.18 1.18 0 00-.1-.19 2 2 0 00-.48-.52 1.15 1.15 0 00-.69-.2 1.31 1.31 0 00-.81.28 2 2 0 00-.6.88 4.46 4.46 0 00-.23 1.54 5 5 0 00.21 1.54 2.29 2.29 0 00.59 1 1.2 1.2 0 00.86.35 1.7 1.7 0 001.07-.31v-1.4h-1.35v-1.13h2.54v3.14a3.7 3.7 0 01-1.1.65 3.55 3.55 0 01-1.24.2 2.75 2.75 0 01-1.65-.49zM52.69 26.55h-1.91l-.54 1.94h-1.39l2.5-7.49h.78l2.5 7.48h-1.41zm-.26-.93l-.68-2.48-.75 2.48zM59.08 21h4.65v1.14h-3.3v1.76h2.66V25h-2.66v3.46h-1.35zM68.4 21h4.65v1.14h-3.3v1.76h2.66V25h-2.66v3.46H68.4zM80.91 26.55H79l-.55 1.94h-1.38l2.5-7.49h.78l2.5 7.48h-1.41zm-.26-.93L80 23.14l-.7 2.48z"/><path d="M84.49 19.82v10l5.97-.07.91-9.86-6.88-.07zM112.95 30.88v10l5.97-.07.91-9.86-6.88-.07zM37.16 40.88v-10l-5.85.06-1.03 9.86 6.88.08z"/><path class="cls-4" d="M37.36 31.16h9.44v9.44h-9.44z"/><path class="cls-4" d="M47.08 40.88h-10v-10h10zm-9.44-.56h8.88v-8.88h-8.88z"/><path class="cls-4" d="M46.8 31.16h9.44v9.44H46.8z"/><path class="cls-4" d="M56.51 40.88h-10v-10h10zm-9.44-.56H56v-8.88h-8.93z"/><path class="cls-4" d="M56.3 31.16h9.44v9.44H56.3z"/><path class="cls-4" d="M66 40.88H56v-10h10zm-9.44-.56h8.89v-8.88h-8.88z"/><path class="cls-4" d="M65.8 31.16h9.44v9.44H65.8z"/><path class="cls-4" d="M75.51 40.88h-10v-10h10zm-9.44-.56H75v-8.88h-8.93z"/><path class="cls-4" d="M75.17 31.16h9.44v9.44h-9.44z"/><path class="cls-4" d="M84.89 40.88h-10v-10h10zm-9.44-.56h8.88v-8.88h-8.88z"/><path class="cls-4" d="M84.61 31.16h9.44v9.44h-9.44z"/><path class="cls-4" d="M94.33 40.88h-10v-10h10zm-9.44-.56h8.88v-8.88h-8.88z"/><path class="cls-4" d="M94.11 31.16h9.44v9.44h-9.44z"/><path class="cls-4" d="M103.83 40.88h-10v-10h10zm-9.44-.56h8.88v-8.88h-8.88z"/><path class="cls-4" d="M103.51 31.16h9.44v9.44h-9.44z"/><path class="cls-4" d="M113.23 40.88h-10v-10h10zm-9.44-.56h8.88v-8.88h-8.88z"/><path class="cls-5" d="M40.47 39.31a2.94 2.94 0 01-1-1.37 5.91 5.91 0 01-.34-2.13 5.8 5.8 0 01.34-2.11 2.9 2.9 0 011-1.34 2.69 2.69 0 013 0 2.9 2.9 0 011 1.34 5.8 5.8 0 01.34 2.11 5.91 5.91 0 01-.34 2.13 2.94 2.94 0 01-1 1.37 2.69 2.69 0 01-3 0zm2.29-1a2.48 2.48 0 00.5-1 6.59 6.59 0 00.17-1.56 5.6 5.6 0 00-.17-1.45 2.27 2.27 0 00-.5-1A1 1 0 0042 33a1 1 0 00-.77.34 2.27 2.27 0 00-.5 1 5.6 5.6 0 00-.17 1.45 6.59 6.59 0 00.17 1.56 2.48 2.48 0 00.5 1 1 1 0 001.54 0zM48.83 32.08h1.42l1.57 5.31 1.49-5.31h1.38l-2.4 7.48h-1zM58.75 32.08h4.87v1.16h-3.57v1.84h3v1.18h-3v2.15h3.54v1.15h-4.84zM68.19 32.08h2.36a2.84 2.84 0 012 .59 2.16 2.16 0 01.64 1.65 2.06 2.06 0 01-.18.82 2.25 2.25 0 01-.51.72 1.83 1.83 0 01-.74.45l1.75 3.25H72l-1.55-3.09h-.87v3.09h-1.39zm2.45 3.25a1.22 1.22 0 00.86-.27 1 1 0 00.29-.74 1 1 0 00-.28-.79 1.26 1.26 0 00-.87-.26h-1.08v2.06zM77.67 32.08h4.65v1.15H79V35h2.66v1.1H79v3.46h-1.33zM87.22 32.08h1.47v.14a.37.37 0 00-.08.15 2.19 2.19 0 000 .29v5.77H92v1.13h-4.78zM97.41 39.31a2.94 2.94 0 01-1-1.37 6.14 6.14 0 01-.34-2.13 6 6 0 01.34-2.11 2.9 2.9 0 011-1.34 2.69 2.69 0 013 0 2.92 2.92 0 011 1.34 6 6 0 01.33 2.11 6.15 6.15 0 01-.33 2.13 3 3 0 01-1 1.37 2.69 2.69 0 01-3 0zm2.29-1a2.36 2.36 0 00.5-1 6.11 6.11 0 00.17-1.56 5.2 5.2 0 00-.17-1.45 2.17 2.17 0 00-.5-1 1 1 0 00-1.53 0 2.28 2.28 0 00-.51 1 5.6 5.6 0 00-.17 1.45 6.59 6.59 0 00.17 1.56 2.61 2.61 0 00.5 1 1 1 0 00.77.37 1 1 0 00.77-.35zM105.46 32.08h1.31l.43 4.92.88-4.32h.86l.88 4.28.31-4.9h1.25l-.89 7.48h-1.06l-1-4.55-1 4.55h-1.08z"/><path d="M112.58 30.82v10l9.64-.06V30.9l-9.64-.08z"/></g><g id="Layer_7" data-name="Layer 7"><path d="M46.56 20.47h.55v8.69h-.55zM56.19 20.47h.55v8.69h-.55zM65.29 20.47h.55v8.69h-.55zM74.65 20.47h.55v8.69h-.55z"/></g><g id="Layer_6" data-name="Layer 6"><path d="M46.59 31.49h.55v8.69h-.55zM56.31 31.49h.55v8.69h-.55zM65.51 31.49h.55v8.69h-.55zM74.95 31.49h.55v8.69h-.55zM84.38 31.49h.55v8.69h-.55zM93.84 31.49h.55v8.69h-.55zM103.33 31.49h.55v8.69h-.55z"/></g></svg>